<svg xmlns="http://www.w3.org/2000/svg" width="474.078" height="427.066"><g stroke="#8A4292" stroke-miterlimit="10" fill="none"><path d="M240.637.5c34.052 0 61.654 27.604 61.654 61.655s-27.604 61.654-61.654 61.654-61.655-27.604-61.655-61.654 27.604-61.655 61.655-61.655zM302.28 61.056h166.297c2.762 0 5 2.238 5 5v355.511c0 2.762-2.238 5-5 5h-463.076c-2.762 0-5-2.238-5-5v-355.511c0-2.762 2.238-5 5-5h173.493"/><path d="M204.778 89.907s-.15-3.221.113-4.746c.263-1.523 2.102-2.89 2.836-3.363.736-.474 18.449-7.357 19.764-7.831s1.523-1.313 1.893-2.154c.368-.842 1.209-2.733 1.473-2.786.263-.054 1.681-.314 1.943-.314.264 0 .158-1.84.158-1.84s-1.629-.579-1.893-2.104c-.262-1.523-.894-5.046-.946-5.52-.63-.104-2.154.054-2.47-2.154-.316-2.208-.946-7.358-.842-7.622.105-.264.842-.578.736-1.263-.104-.683-.84-4.203-.945-5.308-.105-1.104-.316-3.26-.264-4.204.053-.947 1.419-6.309 2.521-7.99 1.314-.42 1.998 0 2.629-.473.631-.474 2.416-3.897 8.2-3.995 2.177-.036 3.938.397 4.378.521 5.565 1.566 5.961 2.437 6.895 3.212.699.581 2.566 1.85 4.326 7.551.063 1.14-.265 9.618-.426 10.686-.105.685.631.999.733 1.263.105.264-.524 5.414-.842 7.622-.314 2.208-1.84 2.049-2.471 2.154-.054.474-.685 3.994-.947 5.52-.262 1.522-1.891 2.104-1.891 2.104s-.105 1.84.155 1.84c.265 0 1.685.263 1.945.314.264.052 1.105 1.943 1.475 2.785.365.841.576 1.683 1.892 2.155 1.313.474 19.024 7.357 19.762 7.831.736.475 2.576 1.84 2.838 3.363.265 1.523.338 3.573.338 3.573s-12.5 18.251-35.895 19.011c-24.053.563-37.171-17.838-37.171-17.838zM241.202 16.198c25.328 0 44.856 20.531 44.856 45.856 0 25.326-19.528 45.856-44.856 45.856-25.326 0-46.855-20.53-46.855-45.856-.002-25.324 21.529-45.856 46.855-45.856z"/></g></svg>