<svg xmlns="http://www.w3.org/2000/svg" width="41.438" height="41.438"><path d="M20.969 5.26c8.683 0 15.72 7.037 15.72 15.719s-7.037 15.716-15.72 15.716c-8.682 0-15.719-7.034-15.719-15.716 0-8.681 7.037-15.719 15.719-15.719z" stroke="#fff" stroke-miterlimit="10" fill="none"/><path d="M20.719.803c11.143 0 20.175 9.033 20.175 20.176s-9.032 20.173-20.175 20.173c-11.144 0-20.176-9.03-20.176-20.173 0-11.144 9.032-20.176 20.176-20.176z" stroke="#fff" stroke-miterlimit="10" fill="none"/><g fill="#fff"><path d="M26.975 16.694c-.369 0-.666-.299-.666-.667v-4.66h-10.679v4.66c0 .368-.299.667-.668.667-.367 0-.666-.299-.666-.667v-5.975h13.347v5.975c0 .368-.299.667-.668.667zM27.643 31.387h-13.347v-10.018h13.347v10.018zm-12.013-1.334h10.679v-7.351h-10.679v7.351zM30.16 27.383h-3.186c-.369 0-.666-.299-.666-.668s.297-.668.666-.668h3.186c.084 0 .152-.068.152-.152v-9.049c0-.084-.068-.152-.152-.152h-18.383c-.084 0-.152.068-.152.152v9.049c0 .084.068.152.152.152h3.185c.369 0 .668.299.668.668s-.299.668-.668.668h-3.185c-.82 0-1.487-.668-1.487-1.488v-9.049c0-.819.667-1.487 1.487-1.487h18.383c.82 0 1.488.668 1.488 1.487v9.049c.001.82-.667 1.488-1.488 1.488zM26.975 18.037h.668c.369 0 .668.299.668.668s-.299.668-.668.668h-.668c-.369 0-.668-.299-.668-.668s.299-.668.668-.668z"/></g></svg>