<svg xmlns="http://www.w3.org/2000/svg" width="37.668" height="37.665"><path fill="#fff" d="M18.837-.005c-10.404 0-18.837 8.433-18.837 18.837 0 10.402 8.433 18.838 18.837 18.838s18.837-8.436 18.837-18.838c0-10.404-8.433-18.837-18.837-18.837zm0 35.318c-9.089 0-16.483-7.394-16.483-16.479 0-9.086 7.395-16.521 16.483-16.521 9.087 0 16.483 7.431 16.483 16.519 0 9.087-7.394 16.481-16.483 16.481zm9.43-16.468c0 .648-.522 1.178-1.177 1.178h-13.262l4.259 4.26c.46.459.46 1.203 0 1.664s-1.205.461-1.665 0l-6.954-7.139 6.954-7.139c.229-.229.531-.344.833-.344.301 0 .604.114.832.344.46.459.46 1.205 0 1.664l-4.333 4.334h13.336c.651 0 1.177.528 1.177 1.178z"/></svg>