<svg xmlns="http://www.w3.org/2000/svg" width="41.438" height="41.438"><path d="M20.969 5.26c8.683 0 15.72 7.037 15.72 15.719s-7.037 15.716-15.72 15.716c-8.682 0-15.719-7.034-15.719-15.716 0-8.681 7.037-15.719 15.719-15.719z" stroke="#fff" stroke-miterlimit="10" fill="none"/><path d="M20.719.803c11.143 0 20.175 9.033 20.175 20.176s-9.032 20.173-20.175 20.173c-11.144 0-20.176-9.03-20.176-20.173 0-11.144 9.032-20.176 20.176-20.176z" stroke="#fff" stroke-miterlimit="10" fill="none"/><g stroke="#fff" stroke-miterlimit="10" fill="none"><path d="M12.784 10.522v20.673l8.184-6.031 8.185 6.031v-20.673h-16.369zm15.505 18.967l-6.811-5.02-.511-.377-.513.377-6.812 5.02v-18.106h14.645l.002 18.106zM25.274 15.69h-8.612v.859h8.612v-.859zM25.274 19.133h-8.612v.861h8.612v-.861z"/></g></svg>