<svg xmlns="http://www.w3.org/2000/svg" width="26.012" height="23.859"><path d="M13.067 2c6.103 0 10.943 3.437 10.943 7.738-.019 4.77-4.559 8.271-10.66 8.271 0 0-.933.036-1.889-.105l-1.115-.077-1.28 1.063c-.297.343-1.587 1.42-2.699 2.12.676-1.928.647-2.539.647-2.539l.094-1.224-1.09-.558c-2.772-1.418-4.018-4.368-4.018-6.951 0-4.301 4.964-7.738 11.067-7.738m0-2c-7.217 0-13.067 4.326-13.067 9.738 0 3.371 1.653 6.966 5.106 8.73l-.006.059c0 1.466-1.22 3.475-1.7 4.303h.002c-.038.09-.062.188-.062.292 0 .409.33.738.741.738l.194-.013.013.003c2.552-.417 6.32-3.289 6.878-3.97.574.085.96.099 1.44.099l.678-.003c7.217 0 12.811-4.122 12.724-10.238.002-5.412-5.724-9.738-12.941-9.738z" fill="#fff"/></svg>