<svg xmlns="http://www.w3.org/2000/svg" width="41.438" height="41.438"><path d="M20.969 5.26c8.683 0 15.72 7.037 15.72 15.719s-7.037 15.716-15.72 15.716c-8.682 0-15.719-7.034-15.719-15.716 0-8.681 7.037-15.719 15.719-15.719z" stroke="#fff" stroke-miterlimit="10" fill="none"/><path d="M20.719.803c11.143 0 20.175 9.033 20.175 20.176s-9.032 20.173-20.175 20.173c-11.144 0-20.176-9.03-20.176-20.173 0-11.144 9.032-20.176 20.176-20.176z" stroke="#fff" stroke-miterlimit="10" fill="none"/><path d="M31.509 17.766l-4.168-4.168-3.057-3.058h-.001l-1.703-1.701-.312-.311c-.346-.348-.809-.539-1.301-.539s-.953.191-1.301.539l-2.015 2.013h-3.056v3.056l-.641.642-2.537 2.538-1.07 1.068v13.937h21.24v-13.936l-.078-.08zm-.879.322l-3.289 3.291v-6.58l3.289 3.289zm-10.363-8.959c.375-.375 1.029-.375 1.402 0l1.413 1.412h-4.229l1.414-1.412zm3.666 2.262l2.558 2.559v8.277l-1.967 1.969-1.943-1.943-.312-.311c-.346-.348-.809-.54-1.301-.54s-.953.192-1.301.54l-2.289 2.287-1.932-1.934v-10.904h8.487zm-12.223 6.295l2.887-2.887v6.646l-3.324-3.324.437-.435zm-.512 2.244v-.682l5.58 5.581-.063.063-.002-.004-5.516 5.519v-10.477zm.678 11l.457-.457h.002l7.934-7.931c.375-.375 1.027-.375 1.4 0l7.74 7.739h.002l.471.469.18.18h-18.186zm18.863-11.557v11.033999999999999l-5.517-5.519-.002.004-.097-.096 5.614-5.615.002.192z" stroke="#fff" stroke-miterlimit="10" fill="none"/></svg>