<svg xmlns="http://www.w3.org/2000/svg" width="41.438" height="41.438"><g><path stroke="#fff" stroke-miterlimit="10" d="M20.969 5.002c8.683 0 15.72 7.037 15.72 15.718 0 8.683-7.037 15.716-15.72 15.716-8.682 0-15.719-7.033-15.719-15.716.001-8.68 7.038-15.718 15.719-15.718z" fill="none"/><path stroke="#fff" stroke-miterlimit="10" d="M20.719.545c11.144 0 20.175 9.033 20.175 20.175 0 11.144-9.031 20.173-20.175 20.173s-20.176-9.029-20.176-20.173c.001-11.144 9.034-20.175 20.176-20.175z" fill="none"/><g fill="#fff"><path d="M20.719 8.865l-4.301 4.309v-1.725h-3.44v5.168l-3.03 3.034.606.607 10.164-10.176 10.167 10.176.607-.607-10.773-10.786zm-6.88 3.445h1.72v1.724l-1.72 1.724v-3.448zM12.977 20.063v10.335h6.021v-6.029h3.442v6.029h6.02v-10.335l-7.743-7.752-7.74 7.752zm14.627 9.474h-4.305v-6.029h-5.159v6.029h-4.301v-9.119l6.881-6.891 6.884 6.891v9.119z"/></g></g></svg>