<?xml version="1.0" encoding="iso-8859-1"?>
<!-- Generator: Adobe Illustrator 17.0.0, SVG Export Plug-In . SVG Version: 6.00 Build 0)  -->
<!DOCTYPE svg PUBLIC "-//W3C//DTD SVG 1.1//EN" "http://www.w3.org/Graphics/SVG/1.1/DTD/svg11.dtd">
<svg version="1.1" id="Layer_1" xmlns="http://www.w3.org/2000/svg" xmlns:xlink="http://www.w3.org/1999/xlink" x="0px" y="0px"
	 width="41.438px" height="41.438px" viewBox="0 0 41.438 41.438" style="enable-background:new 0 0 41.438 41.438;"
	 xml:space="preserve">
<g>
	<path style="fill:none;stroke:#FFFFFF;stroke-miterlimit:10;" d="M20.969,5.002c8.683,0,15.72,7.037,15.72,15.718
		c0,8.683-7.037,15.716-15.72,15.716c-8.682,0-15.719-7.033-15.719-15.716C5.251,12.04,12.288,5.002,20.969,5.002z"/>
	<path style="fill:none;stroke:#FFFFFF;stroke-miterlimit:10;" d="M20.719,0.545c11.144,0,20.175,9.033,20.175,20.175
		c0,11.144-9.031,20.173-20.175,20.173S0.543,31.864,0.543,20.72C0.544,9.576,9.577,0.545,20.719,0.545z"/>
</g>
<g>
	<path style="fill:#FFFFFF;" d="M15.437,28.364c-1.812,0-3.625,0-5.437,0c0.152,0.151,0.304,0.302,0.456,0.452
		c0-2.812,0-5.623,0-8.435c0-0.337,0-0.674,0-1.011c-0.152,0.151-0.304,0.302-0.456,0.452c1.812,0,3.625,0,5.437,0
		c-0.152-0.151-0.304-0.302-0.456-0.452c0,2.812,0,5.623,0,8.435c0,0.338,0,0.674,0,1.011c0,0.584,0.911,0.584,0.911,0
		c0-2.812,0-5.623,0-8.435c0-0.337,0-0.674,0-1.011c0-0.246-0.207-0.452-0.456-0.452c-1.812,0-3.625,0-5.437,0
		c-0.248,0-0.456,0.206-0.456,0.452c0,2.812,0,5.623,0,8.435c0,0.338,0,0.674,0,1.011c0,0.246,0.207,0.452,0.456,0.452
		c1.812,0,3.625,0,5.437,0C16.023,29.267,16.023,28.364,15.437,28.364z"/>
	<path style="fill:#FFFFFF;" d="M17.283,19.322c1.837-2.53,3.651-5.08,5.388-7.679c0.459-0.688,0.915-1.38,1.338-2.091
		c0.14-0.234,0.272-0.472,0.395-0.715c0.034-0.067,0.075-0.131,0.119-0.192c-0.056,0.08,0.07-0.077,0.095-0.103
		c0.026-0.026,0.053-0.05,0.079-0.074c0.091-0.079-0.075,0.053,0.022-0.018c0.067-0.049,0.14-0.091,0.214-0.13
		c0.031-0.017,0.064-0.031,0.097-0.046c-0.103,0.047,0.006,0.001,0.025-0.006c0.067-0.023,0.137-0.041,0.207-0.056
		c0.035-0.008,0.071-0.014,0.105-0.019c-0.119,0.019,0,0.002,0.022,0.001c0.083-0.007,0.167-0.006,0.25-0.002
		c0.036,0.002,0.071,0.006,0.107,0.01c-0.12-0.014-0.001,0.002,0.021,0.006c0.071,0.014,0.14,0.034,0.208,0.055
		c0.018,0.006,0.13,0.051,0.025,0.006c0.033,0.014,0.066,0.03,0.097,0.047c0.075,0.038,0.147,0.083,0.216,0.133
		C26.23,8.39,26.389,8.52,26.416,8.547c0.026,0.026,0.051,0.055,0.076,0.083c0.083,0.095-0.052-0.074,0.022,0.03
		c0.128,0.178,0.148,0.246,0.196,0.41c0.063,0.209,0.063,0.281,0.067,0.493c0.003,0.24-0.031,0.455-0.085,0.686
		c-0.222,0.962-0.753,1.769-1.351,2.533c-0.358,0.46-0.721,0.917-1.083,1.375c-0.16,0.202-0.321,0.405-0.48,0.607
		c-0.186,0.235-0.46,0.497-0.358,0.828c0.206,0.676,0.938,0.587,1.489,0.597c0.895,0.017,1.788,0.033,2.683,0.049
		c0.83,0.014,1.66,0.032,2.49,0.041c0.49,0.005,0.965,0.163,1.103,0.677c0.075,0.276,0.019,0.624,0.021,0.909
		c0.002,0.217,0.003,0.434-0.003,0.651c-0.002,0.061-0.04,0.439-0.004,0.181c0.146-0.111,0.293-0.221,0.439-0.332
		c-0.165,0.014-0.33,0.029-0.496,0.043c-0.247,0.021-0.456,0.189-0.456,0.452c0,0.295,0,0.59,0,0.886
		c0,0.246,0.207,0.452,0.456,0.452c0.034,0,0.068-0.001,0.103-0.002c0.018-0.001,0.037,0.001,0.055,0.002
		c-0.131-0.007,0.034,0.035-0.044-0.006c-0.029-0.014-0.047-0.038-0.055-0.07c0.022,0.056,0.014,0.133,0.018,0.194
		c0.007,0.145,0.01,0.29,0.011,0.435c0.001,0.25,0.018,0.53-0.026,0.776c-0.02,0.112-0.034,0.033,0.051,0.002
		c-0.077,0.028,0.095,0.01-0.016,0.002c0,0.302,0,0.603,0,0.905c0.01,0,0.021,0,0.031,0c-0.152-0.151-0.304-0.302-0.456-0.452
		c0,0.38,0,0.759,0,1.139c0,0.246,0.207,0.452,0.456,0.452c0.062,0,0.111-0.001,0.176-0.016c-0.047,0.01-0.147,0.01-0.065,0.012
		c-0.067-0.002-0.125-0.015-0.176-0.06c-0.065-0.059-0.007,0.008-0.002,0.062c0.03,0.263,0.023,0.542,0.02,0.807
		c-0.002,0.243,0.042,0.568-0.067,0.788c-0.051,0.105,0.024-0.007-0.043,0.066c-0.056,0.06,0.043-0.016-0.056,0.035
		c0.112-0.059,0.027-0.01-0.016-0.004c-0.16,0.022-0.268,0.18-0.318,0.316c-0.237,0.646-0.214,1.423-0.276,2.104
		c-0.01,0.111,0.032-0.124-0.009,0.037c-0.001,0.002-0.051,0.095-0.057,0.107c-0.067,0.108-0.172,0.194-0.268,0.274
		c-0.169,0.143-0.423,0.261-0.646,0.261c-0.1,0-0.202,0-0.302,0c-1.368,0-2.736,0-4.103,0c-2.723,0-5.448,0-8.171,0
		c0.152,0.151,0.304,0.302,0.456,0.452c0-2.813,0-5.626,0-8.438c0-0.428,0-0.857,0-1.284c0-0.583-0.911-0.583-0.911,0
		c0,2.813,0,5.626,0,8.439c0,0.427,0,0.856,0,1.283c0,0.246,0.207,0.452,0.456,0.452c2.778,0,5.558,0,8.336,0
		c1.332,0,2.663,0,3.995,0c0.8,0,1.551-0.334,1.98-1.038c0.237-0.39,0.197-0.973,0.236-1.413c0.01-0.107,0.019-0.216,0.03-0.323
		c0.009-0.102,0.018-0.204,0.027-0.306c0.005-0.047,0.009-0.093,0.013-0.14c0.014-0.147-0.034,0.126,0.002,0.026
		c0.031-0.085,0.063-0.169,0.093-0.253c-0.107,0.106-0.213,0.211-0.318,0.316c0.827-0.113,0.844-1.176,0.851-1.792
		c0.005-0.409,0.043-0.898-0.144-1.271c-0.095-0.192-0.247-0.311-0.446-0.383c-0.06-0.022-0.134-0.027-0.2-0.024
		c-0.043,0.006-0.088,0.011-0.132,0.018c-0.055,0.01,0.157-0.014,0.057-0.014c0.151,0.151,0.303,0.302,0.456,0.452
		c0-0.38,0-0.759,0-1.139c0-0.247-0.207-0.452-0.456-0.452c-0.01,0-0.02,0-0.031,0c-0.595,0-0.577,0.857,0,0.905
		c0.919,0.075,0.899-1.079,0.901-1.682c0.002-0.427,0.021-0.865-0.26-1.212c-0.176-0.217-0.48-0.246-0.737-0.246
		c0.152,0.151,0.304,0.302,0.456,0.452c0-0.295,0-0.59,0-0.886c-0.152,0.151-0.304,0.302-0.456,0.452
		c0.165-0.014,0.33-0.029,0.496-0.043c0.183-0.016,0.41-0.124,0.439-0.332c0.074-0.528,0.034-1.063,0.039-1.595
		c0.007-0.685-0.217-1.251-0.796-1.649c-0.6-0.412-1.436-0.321-2.132-0.332c-1.631-0.027-3.263-0.058-4.894-0.087
		c-0.046-0.001-0.092-0.002-0.138-0.003c0.136,0.003,0.228,0.079,0.071-0.018c0.131,0.081-0.072,0.49,0.062,0.322
		c0.045-0.057,0.09-0.114,0.136-0.171c0.354-0.446,0.707-0.892,1.059-1.339c0.618-0.785,1.249-1.525,1.675-2.435
		c0.423-0.903,0.753-2.031,0.362-3.003c-0.274-0.685-0.873-1.196-1.614-1.309c-0.711-0.109-1.444,0.094-1.954,0.609
		c-0.221,0.223-0.347,0.496-0.496,0.766c-0.156,0.282-0.323,0.558-0.493,0.832c-1.025,1.652-2.144,3.248-3.26,4.841
		c-1.055,1.508-2.123,3.008-3.205,4.498c-0.145,0.2-0.035,0.504,0.164,0.618C16.89,19.618,17.139,19.521,17.283,19.322
		L17.283,19.322z"/>
</g>
</svg>
