<svg xmlns="http://www.w3.org/2000/svg" width="41.438" height="41.438"><path d="M20.969 5.26c8.683 0 15.72 7.037 15.72 15.719s-7.037 15.716-15.72 15.716c-8.682 0-15.719-7.034-15.719-15.716 0-8.681 7.037-15.719 15.719-15.719z" stroke="#fff" stroke-miterlimit="10" fill="none"/><path d="M20.719.803c11.143 0 20.175 9.033 20.175 20.176s-9.032 20.173-20.175 20.173c-11.144 0-20.176-9.03-20.176-20.173 0-11.144 9.032-20.176 20.176-20.176z" stroke="#fff" stroke-miterlimit="10" fill="none"/><path d="M20.97 32.652l-10.929-2.732v-17.76l10.929 2.732 10.927-2.732v17.758l-10.927 2.734zm-9.562-4.099l8.878 2.537v-14.977l-8.878-1.901v14.341zm19.123-14.342l-8.879 1.901v14.978l8.879-2.535v-14.344z" fill="#fff"/></svg>