<svg xmlns="http://www.w3.org/2000/svg" width="41.438" height="41.438"><path d="M20.969 5.26c8.683 0 15.72 7.037 15.72 15.719 0 8.681-7.037 15.716-15.72 15.716-8.682 0-15.719-7.035-15.719-15.716s7.037-15.719 15.719-15.719z" stroke="#fff" stroke-miterlimit="10" fill="none"/><g fill="#fff"><path d="M28.749 25.586v-7.345c0-3.826-2.77-6.999-6.408-7.646v-.584c0-.503-.41-.914-.915-.914h-.914c-.506 0-.914.411-.914.914v.587c-3.634.652-6.392 3.822-6.392 7.643v7.345l-3.209 2.598v1.482h21.943v-1.482l-3.191-2.598zm2.277 3.166h-20.115v-.131l2.869-2.324.34-.273v-7.7829999999999995c0-3.782 3.075-6.857 6.855-6.857 3.781 0 6.857 3.075 6.857 6.857v7.781l.336.273 2.854 2.324v.133h.004zM20.968 32.858c1.264 0 2.288-1.021 2.288-2.283h-4.574c-.001 1.261 1.023 2.283 2.286 2.283z"/></g><path d="M20.719.803c11.143 0 20.175 9.033 20.175 20.176 0 11.142-9.032 20.173-20.175 20.173-11.144 0-20.176-9.031-20.176-20.173 0-11.144 9.032-20.176 20.176-20.176z" stroke="#fff" stroke-miterlimit="10" fill="none"/></svg>