<svg xmlns="http://www.w3.org/2000/svg" width="41.438" height="41.438"><path d="M20.969 5.26c8.683 0 15.72 7.037 15.72 15.719s-7.037 15.716-15.72 15.716c-8.682 0-15.719-7.034-15.719-15.716 0-8.681 7.037-15.719 15.719-15.719z" stroke="#fff" stroke-miterlimit="10" fill="none"/><path d="M20.719.803c11.143 0 20.175 9.033 20.175 20.176s-9.032 20.173-20.175 20.173c-11.144 0-20.176-9.03-20.176-20.173 0-11.144 9.032-20.176 20.176-20.176z" stroke="#fff" stroke-miterlimit="10" fill="none"/><path d="M30.873 12.385l-.092.009h-2.492v-.009h-14.643v.009h-2.492l-.092-.009c-.951 0-1.722.771-1.722 1.723 0 .479.195.91.51 1.224l3.796 3.795v-.281c0 3.897 3.049 7.076 6.891 7.301v6.908h-3.444v.861h7.753v-.861h-3.445v-6.908c3.842-.225 6.891-3.402 6.891-7.301v.281l3.797-3.795c.314-.313.51-.745.51-1.224-.003-.952-.773-1.723-1.726-1.723zm-17.227 5.524l-3.189-3.19c-.165-.164-.255-.38-.255-.61 0-.463.367-.842.826-.861l.08.007.023.001h2.5140000000000002l.001 4.653zm13.782.937c0 3.563-2.896 6.459-6.459 6.459-3.563 0-6.461-2.896-6.461-6.459v-5.599h12.92v5.599zm4.053-4.127l-3.189 3.189v-4.652h2.513l.023-.001.08-.007c.459.019.826.397.826.861.003.231-.089.446-.253.61z" stroke="#fff" stroke-miterlimit="10" fill="none"/></svg>