<svg xmlns="http://www.w3.org/2000/svg" width="41.438" height="41.438"><path stroke="#fff" stroke-miterlimit="10" d="M20.969 5.26c8.683 0 15.72 7.037 15.72 15.719s-7.037 15.716-15.72 15.716c-8.682 0-15.719-7.034-15.719-15.716 0-8.681 7.037-15.719 15.719-15.719z" fill="none"/><path stroke="#fff" stroke-miterlimit="10" d="M20.719.803c11.143 0 20.175 9.033 20.175 20.176s-9.032 20.173-20.175 20.173c-11.144 0-20.176-9.03-20.176-20.173 0-11.144 9.032-20.176 20.176-20.176z" fill="none"/><path fill="#fff" d="M21.911 12.26v1.847l.568.146c.643.166 1.256.426 1.823.77l.509.309.42-.421.901-.901 1.606 1.607-.931.932-.411.41.289.504c.32.559.561 1.162.713 1.796l.139.581h1.952v2.274h-1.9939999999999998l-.154.556c-.166.601-.414 1.176-.738 1.711l-.309.51.42.42 1.025 1.026-1.606 1.607-1.057-1.057-.411-.41-.502.289c-.521.3-1.088.529-1.684.683l-.568.146v2.0989999999999998h-2.273v-2.0989999999999998l-.568-.146c-.596-.153-1.162-.383-1.684-.683l-.503-.289-.41.41-1.057 1.058-1.606-1.608 1.025-1.026.42-.42-.309-.51c-.324-.535-.572-1.11-.738-1.711l-.154-.556h-1.9939999999999998v-2.274h1.951l.139-.581c.152-.634.393-1.237.713-1.796l.289-.504-.41-.41-.932-.932 1.606-1.607.901.901.42.421.509-.309c.567-.344 1.181-.604 1.823-.77l.568-.146v-1.847h2.274m-1.136 12.129c1.881 0 3.41-1.53 3.41-3.412 0-1.881-1.529-3.41-3.41-3.41s-3.41 1.529-3.41 3.41c0 1.882 1.529 3.412 3.41 3.412m1.894-12.886h-3.789v2.018c-.724.187-1.404.477-2.027.854l-1.437-1.438-2.679 2.68 1.467 1.469c-.354.616-.621 1.287-.791 1.996h-2.111v3.79h2.175c.188.678.465 1.315.822 1.902l-1.563 1.563 2.679 2.681 1.593-1.594c.58.334 1.208.589 1.871.76v2.269h3.789v-2.269c.663-.171 1.291-.426 1.871-.76l1.593 1.593 2.679-2.68-1.562-1.563c.356-.587.634-1.225.821-1.902h2.175v-3.79h-2.11c-.17-.709-.438-1.38-.791-1.996l1.467-1.469-2.679-2.68-1.437 1.438c-.623-.378-1.304-.667-2.027-.854v-2.018h.001zm-1.894 12.128c-1.465 0-2.652-1.188-2.652-2.654 0-1.465 1.188-2.652 2.652-2.652s2.652 1.188 2.652 2.652c0 1.467-1.187 2.654-2.652 2.654z"/></svg>