<?xml version="1.0" encoding="utf-8"?>
<!-- Generator: Adobe Illustrator 17.0.0, SVG Export Plug-In . SVG Version: 6.00 Build 0)  -->
<!DOCTYPE svg PUBLIC "-//W3C//DTD SVG 1.1//EN" "http://www.w3.org/Graphics/SVG/1.1/DTD/svg11.dtd">
<svg version="1.1" id="Layer_1" xmlns="http://www.w3.org/2000/svg" xmlns:xlink="http://www.w3.org/1999/xlink" x="0px" y="0px"
	 width="41.438px" height="41.438px" viewBox="0 0 41.438 41.438" enable-background="new 0 0 41.438 41.438" xml:space="preserve">
<g>
	<path fill="none" stroke="#FFFFFF" stroke-miterlimit="10" d="M20.969,5.002c8.683,0,15.72,7.037,15.72,15.718
		c0,8.683-7.037,15.716-15.72,15.716c-8.682,0-15.719-7.033-15.719-15.716C5.251,12.04,12.288,5.002,20.969,5.002z"/>
	<path fill="none" stroke="#FFFFFF" stroke-miterlimit="10" d="M20.719,0.545c11.144,0,20.175,9.033,20.175,20.175
		c0,11.144-9.031,20.173-20.175,20.173S0.543,31.864,0.543,20.72C0.544,9.576,9.577,0.545,20.719,0.545z"/>
</g>
<g>
	<path fill="none" stroke="#FFFFFF" stroke-width="0.75" stroke-miterlimit="10" d="M24.935,30.519
		c-0.926,0.366-1.664,0.643-2.217,0.835c-0.552,0.192-1.193,0.288-1.923,0.288c-1.122,0-1.995-0.274-2.616-0.821
		s-0.931-1.24-0.931-2.083c0-0.328,0.023-0.663,0.069-1.004c0.047-0.341,0.122-0.725,0.224-1.157l1.16-4.096
		c0.102-0.393,0.19-0.766,0.261-1.114c0.07-0.35,0.104-0.672,0.104-0.965c0-0.521-0.108-0.887-0.323-1.093
		c-0.218-0.206-0.628-0.306-1.239-0.306c-0.299,0-0.606,0.044-0.922,0.137c-0.312,0.096-0.584,0.183-0.806,0.268l0.306-1.262
		c0.759-0.309,1.486-0.574,2.179-0.794c0.693-0.222,1.349-0.332,1.966-0.332c1.114,0,1.973,0.271,2.578,0.808
		c0.602,0.538,0.905,1.237,0.905,2.097c0,0.178-0.021,0.492-0.062,0.94c-0.041,0.45-0.119,0.859-0.232,1.236l-1.154,4.084
		c-0.094,0.328-0.178,0.702-0.254,1.122c-0.075,0.419-0.111,0.739-0.111,0.954c0,0.542,0.12,0.913,0.364,1.109
		c0.241,0.197,0.663,0.296,1.26,0.296c0.282,0,0.597-0.05,0.954-0.148c0.354-0.098,0.61-0.184,0.771-0.259L24.935,30.519z
		 M24.731,13.943c-0.538,0.5-1.186,0.75-1.943,0.75c-0.756,0-1.408-0.25-1.95-0.75c-0.539-0.5-0.812-1.108-0.812-1.818
		c0-0.709,0.274-1.318,0.812-1.822c0.542-0.506,1.195-0.757,1.95-0.757c0.757,0,1.406,0.251,1.943,0.757
		c0.538,0.504,0.808,1.114,0.808,1.822C25.539,12.837,25.269,13.444,24.731,13.943z"/>
</g>
</svg>
