<svg xmlns="http://www.w3.org/2000/svg" width="36.17" height="36.166"><path d="M18.084 2.259c8.726 0 15.824 7.098 15.824 15.823 0 8.728-7.099 15.859-15.824 15.859-8.726 0-15.824-7.135-15.824-15.859s7.099-15.823 15.824-15.823m0-2.259c-9.987 0-18.084 8.097-18.084 18.082 0 9.988 8.097 18.084 18.084 18.084 9.985 0 18.084-8.096 18.084-18.084 0-9.985-8.097-18.082-18.084-18.082zm-4.795 11.689l11.188 11.188c.44.441.44 1.158 0 1.601-.44.438-1.158.438-1.6 0l-11.188-11.189c-.44-.442-.44-1.157 0-1.598.443-.442 1.159-.442 1.6-.002zm11.19 1.6l-11.19 11.189c-.441.438-1.157.438-1.6 0-.441-.44-.44-1.158 0-1.601l11.189-11.188c.441-.441 1.157-.441 1.6 0 .441.441.441 1.158.001 1.6z" fill="#898A8A"/></svg>