<svg xmlns="http://www.w3.org/2000/svg" width="26.014" height="26.014"><g><path fill="#fff" d="M13.067 3.062c6.104 0 10.94 3.438 10.94 7.736-.019 4.771-4.559 8.271-10.657 8.271 0 0-.936.035-1.892-.104l-1.112-.076-1.28 1.063c-.297.342-1.587 1.42-2.697 2.117.676-1.928.646-2.537.646-2.537l.094-1.227-1.09-.559c-2.773-1.411-4.019-4.361-4.019-6.945 0-4.301 4.964-7.739 11.067-7.739m0-2c-7.217 0-13.067 4.326-13.067 9.739 0 3.372 1.651 6.967 5.104 8.729l-.006.061c0 1.467-1.223 3.477-1.7 4.305h.002c-.038.09-.063.188-.063.291 0 .408.33.736.741.736l.192-.012.015.002c2.552-.416 6.318-3.289 6.878-3.973.572.086.96.102 1.438.102l.68-.002c7.217 0 12.811-4.123 12.724-10.239.005-5.413-5.721-9.739-12.938-9.739z"/></g></svg>