<svg xmlns="http://www.w3.org/2000/svg" width="38.09" height="38.086"><path fill="#fff" d="M2.382 35.712l26.203-.002v2.383h-26.205c-1.313 0-2.38-1.066-2.38-2.381v-3.574c0-1.32 2.38-2.381 2.38-2.381l10.462-4.938c-3.331-2.677-4.521-7.938-4.521-10.541v-5.954c.003-3.943 5.468-8.333 10.728-8.333 5.261 0 10.718 4.39 10.718 8.333v5.953c0 2.86-1.117 7.961-4.416 10.562l3.164 1.479-.588 2.377-3.57-1.689c-.754-.35-1.271-1.063-1.371-1.887-.098-.821.24-1.639.896-2.149 2.557-2.015 3.508-6.396 3.508-8.688v-5.957c0-2.543-4.289-5.951-8.335-5.951-4.01 0-8.343 3.464-8.343 5.951v5.954c0 2.326 1.15 6.693 3.628 8.68.645.52.975 1.331.873 2.148-.104.817-.618 1.527-1.368 1.873l-10.468 4.939c-.284.133-.995.43-.995 1.375v2.418zm34.542-4.758h-3.574v-3.571c0-.658-.533-1.19-1.188-1.19-.658 0-1.191.532-1.191 1.19v3.571h-3.574c-.658 0-1.188.533-1.188 1.191 0 .656.528 1.188 1.188 1.188h3.574v3.572c0 .658.533 1.19 1.191 1.19.653 0 1.188-.532 1.188-1.19v-3.572h3.574c.658 0 1.188-.531 1.188-1.188 0-.658-.529-1.191-1.188-1.191z"/></svg>