<svg xmlns="http://www.w3.org/2000/svg" width="34.732" height="34.736"><path d="M34.728 16.329v-.025c0-.481-.165-.923-.433-1.282h.005l-.029-.03c-.111-.146-.242-.275-.388-.39l-5.668-5.71v-3.503c0-.6-.484-1.085-1.085-1.085h-3.435l-3.961-3.382c-1.229-1.229-3.375-1.229-4.605 0l-3.948 3.382h-3.584c-.601 0-1.085.484-1.085 1.085v3.572l-5.533 5.532c-.587.391-.979 1.057-.979 1.811v16.262c0 1.193.979 2.17 2.171 2.17h30.387c1.192 0 2.171-.978 2.171-2.17v-16.234l-.001-.003zm-25.607 8.279l-6.95 6.446v-12.578l6.95 6.132zm2.094 1.016c.142-.061.274-.152.384-.275l.101-.174 4.719-4.378c.246-.197.537-.302.844-.302.312 0 .622.109.832.271l13.017 11.799h-27.379l7.482-6.941zm14.505-.871l6.835-6.066v12.261l-6.835-6.195zm4.733-10.62h-.033l1.862 1.893-4.066 3.609v-7.739l2.237 2.237zm-13.789-11.676c.206-.205.479-.317.768-.317.291 0 .563.113.769.317l2.191 1.848h-5.917l2.189-1.848zm9.382 4.018v15.085l-1.944 1.726-4.622-4.189c-1.278-1.001-3.113-1.045-4.466.047l-4.293 3.982-2.038-1.798v-14.853h17.363zm-22.524 8.547l2.99-2.99v7.381l-3.955-3.489.915-.901h.05z" fill="#fff"/></svg>