<svg xmlns="http://www.w3.org/2000/svg" width="25.211" height="25.211"><path d="M12.652 9.417c1.737 0 3.149 1.412 3.149 3.148s-1.375 3.185-3.114 3.185c-1.736 0-3.185-1.445-3.185-3.185.003-1.736 1.414-3.148 3.15-3.148m.037-1.541c-2.608 0-4.722 2.114-4.722 4.722 0 2.607 2.113 4.722 4.722 4.722 2.608 0 4.723-2.112 4.723-4.722-.001-2.607-2.114-4.722-4.723-4.722zm-.037-2.409c4.468 0 8.817 2.414 10.954 7.125-2.135 4.708-6.53 7.069-11 7.069-4.459 0-8.848-2.351-11.004-7.077 2.133-4.707 6.581-7.117 11.05-7.117m0-1.574c-5.258 0-10.29 3.011-12.58 8.253l-.016.07-.022.038-.015.121-.028.211.028.211.015.12.022.041.016.07c2.29 5.242 7.273 8.208 12.531 8.208 5.258 0 10.243-2.961 12.531-8.202l.019-.071.021-.039.02-.121.025-.212-.025-.21-.02-.121-.021-.041-.019-.07c-2.288-5.239-7.223-8.256-12.482-8.256z" fill="#575757"/></svg>