<svg xmlns="http://www.w3.org/2000/svg" width="33.912" height="33.861"><path fill="#fff" d="M21.56 31.746l1.721 2.116h-21.165c-1.168 0-2.116-.947-2.116-2.116v-3.178c0-1.173 2.116-2.115 2.116-2.115l9.298-4.389c-2.961-2.377-4.016-7.055-4.016-9.366v-5.292c0-3.504 4.858-7.406 9.533-7.406s9.526 3.901 9.526 7.406v5.291c0 2.541-.992 7.076-3.927 9.386l5.746 2.69-1.262 1.789-5.367-2.557c-.67-.309-1.133-.941-1.219-1.675-.089-.731.213-1.457.793-1.913 2.271-1.789 3.117-5.686 3.117-7.722v-5.29c0-2.261-3.813-5.288-7.409-5.288-3.564 0-7.416 3.076-7.416 5.288v5.291c0 2.067 1.025 5.949 3.225 7.716.572.459.866 1.183.776 1.909-.089.729-.55 1.358-1.216 1.665l-9.298 4.39c-.252.116-.884.38-.884 1.223v2.147h19.444zm11.946-7.817c-.461-.361-1.126-.28-1.485.182l-4.526 6.904-2.816-2.815c-.414-.414-1.084-.414-1.498 0-.414.412-.414 1.084 0 1.496l3.743 3.743c.413.414 1.083.414 1.497 0l.112-.169.008-.007 5.146-7.85c.361-.459.279-1.124-.181-1.484z"/></svg>