<svg xmlns="http://www.w3.org/2000/svg" width="37.674" height="37.674"><path fill="#7E5397" d="M18.837 37.674c10.403 0 18.837-8.434 18.837-18.837 0-10.402-8.434-18.837-18.837-18.837s-18.837 8.435-18.837 18.837c0 10.403 8.434 18.837 18.837 18.837zm0-35.32c9.089 0 16.482 7.393 16.482 16.481s-7.396 16.52-16.482 16.52-16.483-7.43-16.483-16.518 7.394-16.483 16.483-16.483zm-9.43 16.471c0-.65.524-1.177 1.177-1.177h13.263l-4.26-4.259c-.46-.46-.46-1.204 0-1.665.46-.46 1.205-.46 1.665 0l6.954 7.138-6.954 7.137c-.229.229-.53.345-.833.345-.302 0-.604-.116-.832-.344-.46-.46-.46-1.205 0-1.665l4.333-4.333h-13.336c-.651 0-1.177-.526-1.177-1.177z"/></svg>