<svg xmlns="http://www.w3.org/2000/svg" width="29.572" height="29.574"><path fill="#fff" d="M19.724.011h-7.646c-1.019 0-2.104.286-3.267.521-1.171.271-2.301.991-3.388 1.887-1.582 1.528-2.373 3.368-2.373 5.245 0 1.555.562 2.916 1.679 4.084 1.065 1.258 2.619 1.896 4.652 1.922.388 0 .794-.022 1.229-.074l-.23.656c-.096.226-.146.508-.146.844 0 .564.126 1.044.377 1.443.219.414.462.803.737 1.164-.895.021-2.017.137-3.364.334-1.36.234-2.664.707-3.9 1.416-1.104.656-1.864 1.42-2.286 2.289-.436.867-.649 1.656-.649 2.363 0 1.451.667 2.699 2 3.742 1.318 1.115 3.319 1.688 6 1.715 3.199-.053 5.646-.814 7.346-2.295 1.638-1.432 2.454-3.072 2.454-4.928-.021-1.307-.318-2.359-.896-3.17-.605-.799-1.313-1.521-2.119-2.186l-1.3-1.063c-.188-.188-.379-.4-.575-.651-.234-.263-.354-.592-.354-.989 0-.408.111-.771.342-1.082.192-.298.402-.563.636-.802.396-.351.773-.688 1.127-1.024.317-.338.619-.703.903-1.103.582-.821.886-1.916.904-3.283 0-.745-.084-1.396-.254-1.958-.199-.563-.438-1.045-.697-1.455-.274-.437-.563-.804-.852-1.102-.304-.283-.57-.502-.814-.65h2.355l2.369-1.81zm-4.19 21.294c.633.723.947 1.563.947 2.536 0 1.193-.463 2.17-1.391 2.931-.947.771-2.323 1.17-4.128 1.192-2.009-.024-3.592-.478-4.75-1.346-1.218-.871-1.824-1.979-1.824-3.318 0-.688.14-1.271.42-1.756.242-.461.541-.849.896-1.155.363-.298.727-.527 1.078-.688l.819-.34c.827-.244 1.64-.43 2.432-.541.804-.07 1.303-.1 1.499-.07.325 0 .61.016.854.037 1.429.992 2.476 1.832 3.148 2.518zm-1.241-11.253c-.094.512-.301 1.01-.625 1.494-.672.688-1.51 1.047-2.521 1.084-.797 0-1.505-.242-2.125-.729-.621-.483-1.126-1.077-1.521-1.774-.806-1.495-1.21-2.937-1.21-4.318-.023-1.048.253-1.994.833-2.842.687-.813 1.549-1.229 2.586-1.251.784.021 1.479.255 2.08.688.59.462 1.063 1.063 1.431 1.795.771 1.532 1.153 3.055 1.153 4.563.001.349-.027.777-.081 1.29zm14.134-3.375v.992h-3.737v3.92h-1.06v-3.92h-3.735v-.992h3.735v-3.889h1.062v3.889h3.735z"/></svg>