<svg xmlns="http://www.w3.org/2000/svg" width="46.182" height="46.176"><path fill="#fff" d="M1.434 20.2h2.888c.798 0 1.444.646 1.444 1.444v2.888c0 .799-.646 1.443-1.444 1.443h-2.888c-.798 0-1.444-.646-1.444-1.443v-2.888c0-.796.646-1.444 1.444-1.444zm12.994 1.445h30.319c.797 0 1.444.646 1.444 1.442 0 .798-.646 1.445-1.444 1.445h-30.319c-.797 0-1.444-.646-1.444-1.445 0-.797.646-1.442 1.444-1.442zm-12.994 10.104h2.888c.798 0 1.444.646 1.444 1.444v2.888c0 .797-.646 1.444-1.444 1.444h-2.888c-.798-.001-1.444-.647-1.444-1.444v-2.888c0-.796.646-1.444 1.444-1.444zm12.994 1.445h30.319c.797 0 1.444.646 1.444 1.444s-.646 1.442-1.444 1.442h-30.319c-.797 0-1.444-.646-1.444-1.442 0-.798.646-1.444 1.444-1.444zm-12.994-24.544h2.888c.798 0 1.444.646 1.444 1.443v2.888c0 .797-.646 1.444-1.444 1.444h-2.888c-.798 0-1.444-.646-1.444-1.444v-2.888c0-.797.646-1.443 1.444-1.443zm12.994 1.444h30.319c.797 0 1.444.646 1.444 1.445 0 .797-.646 1.443-1.444 1.443h-30.319c-.797 0-1.444-.646-1.444-1.443 0-.798.646-1.445 1.444-1.445z"/></svg>