<svg xmlns="http://www.w3.org/2000/svg" width="24.119" height="24.121"><path fill="#fff" d="M14.117 1.621c0 .746.604 1.351 1.351 1.351h5.934v18.054h-5.934c-.746 0-1.351.604-1.351 1.35 0 .748.604 1.353 1.351 1.353h7.285c.746 0 1.352-.604 1.352-1.353v-20.755c-.002-.747-.605-1.351-1.352-1.351h-7.285c-.746 0-1.351.604-1.351 1.351zm-6.362 14.869l-3.143-3.143h11.599c.746 0 1.351-.604 1.351-1.351s-.604-1.351-1.351-1.351h-11.599l3.142-3.141c.265-.262.396-.608.396-.953s-.131-.692-.395-.955c-.528-.527-1.383-.527-1.91 0l-5.449 5.447c-.254.252-.396.597-.396.955s.143.702.396.956l5.448 5.446c.527.527 1.383.527 1.91 0 .528-.527.528-1.382.001-1.91z"/></svg>