<svg xmlns="http://www.w3.org/2000/svg" width="25" height="25"><path d="M12.5 0c-6.904 0-12.5 5.597-12.5 12.5 0 6.904 5.596 12.5 12.5 12.5s12.5-5.596 12.5-12.5c0-6.903-5.597-12.5-12.5-12.5zm0 23.46c-6.031 0-10.937-4.931-10.937-10.96s4.906-10.937 10.937-10.937c6.03 0 10.937 4.906 10.937 10.937s-4.907 10.96-10.937 10.96zm6.25-10.961c0 .431-.351.781-.781.781h-4.688v4.688c0 .432-.35.781-.781.781-.432 0-.781-.35-.781-.781v-4.688h-4.688c-.432 0-.781-.35-.781-.781s.349-.781.781-.781h4.688v-4.687c0-.432.35-.781.781-.781s.781.35.781.781v4.688h4.688c.431-.001.781.349.781.78z" fill="#898A8A"/></svg>