<svg xmlns="http://www.w3.org/2000/svg" width="26.758" height="26.661"><path fill="#7B7B7B" d="M26.514 25.239l-8.099-8.15c1.51-1.807 2.42-4.131 2.42-6.67 0-5.755-4.664-10.419-10.418-10.419-5.753 0-10.417 4.663-10.417 10.417 0 5.753 4.664 10.417 10.417 10.417 2.614 0 4.996-.971 6.825-2.561l8.093 8.143c.325.326.853.326 1.179 0 .325-.326.325-.853 0-1.177zm-16.097-6.056c-4.84 0-8.765-3.925-8.765-8.765.001-4.841 3.925-8.765 8.765-8.765 4.841 0 8.765 3.924 8.765 8.765 0 4.84-3.924 8.765-8.765 8.765z"/></svg>