<svg xmlns="http://www.w3.org/2000/svg" width="25.516" height="25.516"><path d="M23.925 1.546h-22.319c-.88 0-1.594.714-1.594 1.594v14.386c0 .88.714 1.596 1.594 1.596h3.179v3.968c0 .321.191.609.487.734.102.041.205.063.31.063.206 0 .405-.08.56-.229l4.607-4.536h13.178c.88 0 1.594-.714 1.594-1.596v-14.386c-.004-.88-.718-1.594-1.596-1.594zm0 15.98h-13.83l-3.717 3.658v-3.658h-4.772v-14.386h22.318l.001 14.386zm-18.333-7.974h14.347c.44 0 .798.355.798.797 0 .44-.354.798-.798.798h-14.347c-.44 0-.797-.355-.797-.798 0-.441.356-.797.797-.797zm0-3.189h14.347c.44 0 .798.357.798.798 0 .439-.354.797-.798.797h-14.347c-.44 0-.797-.356-.797-.797s.356-.798.797-.798zm0 6.377h9.563c.44 0 .799.355.799.798 0 .438-.355.798-.799.798h-9.563c-.44 0-.797-.356-.797-.798 0-.442.356-.798.797-.798z" fill="#575757"/></svg>