<svg xmlns="http://www.w3.org/2000/svg" width="33.719" height="33.719"><path fill="#fff" d="M20.076 33.723c-9.583 0-9.658-.396-10.846-1.291-.63-.476-1.815-.803-6.154-1.084-.316-.021-.615-.143-.816-.387-.092-.111-2.26-3.273-2.26-8.338 0-4.989 1.552-7.269 1.618-7.371.191-.309.528-.495.894-.495 3.563 0 8.5-4.547 11.821-12.486.574-1.373.69-2.275 2.802-2.275 1.2 0 2.545.857 3.208 1.961 1.361 2.25.671 7.086.03 9.67 2.175-.02 6.109-.047 7.982-.047 2.605 0 4.33 1.554 4.385 3.825.018.75-.081 1.708-.301 2.2.574.572 1.313 1.438 1.349 2.547.041 1.435-.899 2.523-1.498 3.15.138.416.413.971.386 1.631-.066 1.625-1.32 2.676-2.104 3.224.064.442.115 1.282-.025 1.934-.566 2.591-4.365 3.632-10.471 3.632zm-15.355-5.528c3.469.285 5.324.677 6.302 1.41.756.57.643.799 8.792.799 2.485 0 7.351-.104 7.724-1.813.146-.682.325-.427.321-.432-.213-.527-.875-1.979-.396-2.189.009-.004 1.938-.696 1.981-1.776.027-.689.639-.551.623-.566-.307-.479-1.258-1.592-.832-1.891.008-.006 1.261-.764 1.229-1.799-.021-.82-1.105-1.398-1.14-1.42-.242-.14-.418-.377-.476-.649-.056-.274.006-.563.176-.783 0 0 .492-.782.479-1.518-.035-1.569-1.729-1.619-2.087-1.619-2.44 0-8.713.022-8.713.022-.338.002-.631-.158-.813-.429-.182-.271-.195-.606-.088-.915.944-2.724 1.473-6.997.596-8.456-.258-.431-.314-.861-1.282-.861-.136 0-.454.105-.787.9-3.235 7.739-8.068 12.216-12.025 12.62-.341.776-.983 2.392-.983 5.315-.002 2.994.944 5.303 1.399 6.05z"/></svg>