<svg xmlns="http://www.w3.org/2000/svg" width="41.813" height="41.813"><path fill="#fff" d="M0 27.289s8.31 7.228 14.917.063c0 0-1.105-.002-1.813-.548-.646-.495-.901-1.54-.901-1.54s2.055-1.148 1.282-2.019c0 0-4.547-.093-4.801-2.837l2.67-1.726s-1.049.51-2.088-.009c0 0-2.695-1.935-2.181-3.913l2.252-.229s-3.907-2.775-2.815-4.909c0 0 .377-1.835 13.299 6.746 0 0 2.278-8.109 6.487-9.895 0 0 .699.336.699.692 0 0 .598-1.284 1.385-1.401 0 0 .95.837.332 1.313 0 0 1.604-1.097 2.383-.54 0 0-.063.976-2.362 2.188 0 0 5.973.331 8.058 8.296 0 0 2.592.934 5.021-.633 0 0 .201 1.178-3.571 2.841 0 0 .353.566 3.517.139 0 0-.021 2.354-5.031 2.336 0 0-4.229 12.252-14.506 13.938-12.496 2.051-21.269-4.192-22.233-8.353z"/></svg>