<svg xmlns="http://www.w3.org/2000/svg" width="33.912" height="33.861" viewBox="0 0 27.354 27.322"><path fill="#fff" d="M18.173 17.812l.52.392-.749 1.383-.482-.224c-.541-.249-.913-.76-.982-1.351-.069-.592.173-1.176.641-1.544 1.832-1.442 2.515-4.585 2.515-6.228v-4.266c0-1.823-3.075-4.267-5.976-4.267-2.875 0-5.981 2.481-5.981 4.267v4.269c0 1.667.827 4.798 2.602 6.223.461.37.698.953.625 1.54-.071.587-.442 1.097-.979 1.344l-7.5 3.539c-.203.094-.713.307-.713.985v1.732l16.223-.001v1.708h-16.23c-.943-.001-1.707-.765-1.707-1.708v-2.563c0-.946 1.707-1.707 1.707-1.707l7.5-3.539c-2.389-1.917-3.239-5.689-3.239-7.554v-4.268c-.001-2.827 3.917-5.974 7.688-5.974s7.685 3.146 7.685 5.975v4.269c-.001 2.048-.802 5.704-3.168 7.568zm8.93 8.053l-2.415-2.414 2.415-2.415c.333-.334.333-.875 0-1.208-.333-.334-.874-.334-1.208 0l-2.415 2.415-2.415-2.415c-.334-.333-.875-.333-1.208 0-.333.334-.333.875 0 1.208l2.415 2.415-2.415 2.414c-.333.334-.333.875 0 1.208.334.333.875.333 1.208 0l2.415-2.415 2.415 2.415c.334.333.875.333 1.208 0 .334-.334.334-.875 0-1.208z"/></svg>